<svg xmlns="http://www.w3.org/2000/svg" viewBox="0 0 96 96">
  <path fill="#04F" d="M0 0h96v96H0z"/>
  <path fill="#FFF" d="M48 33a9 9 0 0 1 4.6 16.7L64 80h-6l-2.5-7h-15L38 80h-6l11.4-30.3A9 9 0 0 1 48 33Zm0 19-6 16h12l-6-16ZM24 18l3.5 3.5a29 29 0 0 0 0 41L24 66a33.8 33.8 0 0 1 0-48Zm48 0a34 34 0 0 1 0 48l-3.5-3.5a29 29 0 0 0 0-41Zm-40 8.5 4 3.5c-3.3 3.3-5 7.3-5 12s1.7 8.7 5 12l-4 3.5A21.2 21.2 0 0 1 25.5 42c0-6 2.2-11.2 6.5-15.5Zm32 0c4.3 4.3 6.5 9.5 6.5 15.5S68.3 53.2 64 57.5L60 54c3.3-3.3 5-7.3 5-12s-1.7-8.7-5-12Z"/>
</svg>
