<svg xmlns="http://www.w3.org/2000/svg" viewBox="0 0 96 96">
  <path fill="#C00" d="M0 0h96v96H0z"/>
  <path fill="#FFF" fill-rule="nonzero" d="M36.5 84a8.5 8.5 0 0 1-8.2-10.8l.2-.7 21-54.5c.3-.8.2-2.7 0-3.8v-.7l.1-.1c.3-1 1.4-1.4 3-1.4 2 0 4.9.6 7.7 1.7 2.4 1 4.6 2 6.1 3.2 1.8 1.4 2.5 2.6 2.1 3.6v.2h-.1l-.5.5a9 9 0 0 0-2.5 2.9L44.2 79.3a8.6 8.6 0 0 1-7.7 4.7ZM30 72.8v.2a7 7 0 0 0 6.5 9.5 7 7 0 0 0 6.6-4.5v-.2l21-54.2c.4-1.2 2.5-3.1 2.9-3.5V20c0-.2-.1-.8-1.6-2a24 24 0 0 0-5.7-3 22 22 0 0 0-7.1-1.6c-1.2 0-1.6.3-1.6.4v.1c0 .3.4 3.1-.1 4.6l-21 54.3Zm26.8-34.5S54 41.7 51.3 43c-2.6 1.1-4.6.8-7 2.2-2.3 1.4-3.5 3.3-3.5 3.3l-9.8 25c-1 2.8.5 6.2 3.4 7.3a5.6 5.6 0 0 0 7.2-3.2l15.1-39.3Zm-3.4-22.9c.3-.8 3-.5 6 .7 3 1.1 5.1 2.7 4.8 3.5-.3.8-3 .5-6-.7-3-1.1-5.2-2.7-4.8-3.5Z"/>
</svg>
