<svg xmlns="http://www.w3.org/2000/svg" viewBox="0 0 96 96">
  <path fill="#6364FF" d="M0 0h96v96H0z"/>
  <path fill="#FFF" d="M48 14c11.5 0 16.5.7 17.8 1 8 1.1 14.9 7.2 16 15l.2 6.7v.8l-.2 9v5C81 62.7 74 67 66.7 68.5h-.4a89 89 0 0 1-14.2 1.3h-3.4a59.4 59.4 0 0 1-14-1.4c0 1.5.4 2.9.9 4.3.6 1.6 2.8 5.4 11 5.4A60.6 60.6 0 0 0 61 76.6V82a.2.2 0 0 1 0 .1c-1.6 1.1-3.6 1.7-5.4 2.3l-2.3.6a40 40 0 0 1-21.8-1c-6.5-2.4-13.2-8-14.8-14.7-.9-3.6-1.5-7.3-1.9-11-.5-5.6-.5-11.2-.7-16.9-.2-3.9-.1-8.2.7-12a20 20 0 0 1 16.7-14.5c1.4-.2 4-.9 15.9-.9Zm10.7 11.8a9.8 9.8 0 0 0-8.8 4.5l-2 3.2-1.8-3.2c-2-3-5-4.5-8.8-4.5-3.4 0-6.1 1.2-8.2 3.5-2 2.3-3 5.4-3 9.3V58h7.6V39.2c0-4 1.7-6 5-6 3.6 0 5.5 2.4 5.5 7.1v10.2h7.5V40.3c0-4.7 1.9-7 5.5-7 3.4 0 5 2 5 5.9v18.7h7.6V38.6c0-3.9-1-7-3-9.3-2-2.3-4.8-3.5-8.1-3.5Z"/>
</svg>
