<svg xmlns="http://www.w3.org/2000/svg" viewBox="0 0 96 96">
  <path fill="#181717" d="M0 0h96v96H0z"/>
  <path fill="#FFF" fill-rule="nonzero" d="M48 13a36 36 0 0 0-11.4 70.2c1.8.3 2.5-.8 2.5-1.8v-6.1c-10 2.2-12.2-4.8-12.2-4.8-1.6-4.2-4-5.3-4-5.3-3.3-2.2.3-2.2.3-2.2 3.6.3 5.5 3.7 5.5 3.7 3.2 5.5 8.4 4 10.4 3a8.3 8.3 0 0 1 2.3-4.8c-8-.9-16.4-4-16.4-17.8 0-4 1.4-7.1 3.7-9.6-.4-1-1.6-4.6.4-9.6 0 0 3-1 9.9 3.7a34.5 34.5 0 0 1 18 0c6.8-4.6 9.8-3.7 9.8-3.7 2 5 .7 8.6.4 9.6a14 14 0 0 1 3.7 9.6C70.9 61 62.4 64 54.4 65c1.3 1 2.5 3.3 2.5 6.6v9.9c0 1 .5 2 2.4 1.7A35.9 35.9 0 0 0 48 13"/>
</svg>
