<svg xmlns="http://www.w3.org/2000/svg" viewBox="0 0 512 512">
  <path fill="#333" d="M0 0h512v512H0z"/>
  <circle fill="#ccc" cx="189.5" cy="189.5" r="62.5" />
  <path fill="#ccc" d="M138.3 261h102.4c3.6 0 4.9.4 6.2 1 1.3.8 2.3 1.8 3 3 .7 1.4 1.1 2.7 1.1 6.3v102.4a13 13 0 0 1-1 6.2 7.3 7.3 0 0 1-3 3c-1.4.7-2.7 1.1-6.3 1.1H138.3a13 13 0 0 1-6.2-1 7.3 7.3 0 0 1-3-3c-.7-1.4-1.1-2.7-1.1-6.3V271.3c0-3.6.4-4.9 1-6.2a7.3 7.3 0 0 1 3-3c1.4-.7 2.7-1.1 6.3-1.1Zm127.4 0h108c3.6 0 4.9.4 6.2 1 1.3.8 2.3 1.8 3 3 .7 1.4 1.1 2.7 1.1 6.3v108a4 4 0 0 1-6.8 2.9L262.8 267.8a4 4 0 0 1 2.9-6.8Zm1.8-10C338 251 384 201.6 384 134.5c0-4.3-2.2-6.5-6.5-6.5H270c-5 0-9 4-9 9v107.5c0 4.3 2.2 6.5 6.5 6.5Z"/>
</svg>
