<svg xmlns="http://www.w3.org/2000/svg" viewBox="0 0 512 512">
  <path fill="#333" d="M0 0h512v512H0z"/>
  <circle fill="#ccc" cx="180" cy="180" r="72" />
  <path fill="#ccc" d="M125.4 262h109.2c5.4 0 7.3.6 9.3 1.6 2 1 3.5 2.6 4.5 4.5 1 2 1.6 4 1.6 9.3v109.2c0 5.4-.6 7.3-1.6 9.3-1 2-2.6 3.5-4.5 4.5-2 1-4 1.6-9.3 1.6H125.4c-5.4 0-7.3-.6-9.3-1.6-2-1-3.5-2.6-4.5-4.5-1-2-1.6-4-1.6-9.3V277.4c0-5.4.6-7.3 1.6-9.3 1-2 2.6-3.5 4.5-4.5 2-1 4-1.6 9.3-1.6Zm145.1 0h116.1c5.4 0 7.3.6 9.3 1.6 2 1 3.5 2.6 4.5 4.5 1 2 1.6 4 1.6 9.3v116.1a6 6 0 0 1-10.2 4.3L266.2 272.2a6 6 0 0 1 4.3-10.2Zm-1.1-12c80.3 0 132.6-56.3 132.6-132.6 0-5-2.5-7.4-7.4-7.4H274a12 12 0 0 0-12 12v120.6c0 5 2.5 7.4 7.4 7.4Z"/>
</svg>
