<svg xmlns="http://www.w3.org/2000/svg" viewBox="0 0 512 512">
  <path fill="#333" d="M0 0h512v512H0z"/>
  <circle fill="#ccc" cx="156" cy="156" r="94"/>
  <path fill="#ccc" d="M79.4 264h153.2c5.4 0 7.3.6 9.3 1.6 2 1 3.5 2.6 4.5 4.5 1 2 1.6 4 1.6 9.3v153.2c0 5.4-.6 7.3-1.6 9.3-1 2-2.6 3.5-4.5 4.5-2 1-4 1.6-9.3 1.6H79.4c-5.4 0-7.3-.6-9.3-1.6-2-1-3.5-2.6-4.5-4.5-1-2-1.6-4-1.6-9.3V279.4c0-5.4.6-7.3 1.6-9.3 1-2 2.6-3.5 4.5-4.5 2-1 4-1.6 9.3-1.6Zm191.1 0h162.1c5.4 0 7.3.6 9.3 1.6 2 1 3.5 2.6 4.5 4.5 1 2 1.6 4 1.6 9.3v162.1a6 6 0 0 1-10.2 4.3L266.2 274.2a6 6 0 0 1 4.3-10.2Zm3.2-16C379.3 248 448 174 448 73.7c0-6.5-3.2-9.7-9.7-9.7H276a12 12 0 0 0-12 12v162.3c0 6.5 3.2 9.7 9.7 9.7Z"/>
</svg>
