<svg xmlns="http://www.w3.org/2000/svg">
  <defs>
    <path id="icon" fill="#AAA" d="M24 32a5 5 0 1 1 0 10 5 5 0 0 1 0-10Zm-6.9-11.9 4.1 4.1a17 17 0 0 0-9.7 5.3L8 26a22 22 0 0 1 9-6Zm22.5 5.4L36 29l-.8-.8L26 19a22 22 0 0 1 13.5 6.4ZM8.2 11.2l3.7 3.7a24.7 24.7 0 0 0-8.4 6.6l-3.6-3.6c2.4-2.7 5.2-5 8.3-6.7ZM24 7a32 32 0 0 1 23.4 10.2l-3.5 3.6a27 27 0 0 0-24.5-8.4l-4.2-4.2A32 32 0 0 1 24 7ZM2 5l3-3 41 41-3 3L2 5Z" opacity=".7"/>
  </defs>
  <rect fill="#000" width="100%" height="100%" opacity="0.075"/>
  <use href="#icon" x="50%" y="50%" transform="translate(-24 -24)"/>
</svg>
