<svg xmlns="http://www.w3.org/2000/svg" viewBox="0 0 96 96">
  <path fill="#609926" d="M0 0h96v96H0z"/>
  <path fill="#FFF" d="M22.7 24c-.8 0-1.7 0-2.8.3-1 .2-4.1 1-6.6 3.3-5.6 5-4.2 12.9-4 14a16 16 0 0 0 4 9c5.6 7 17.8 6.8 17.8 6.8s1.5 3.6 3.8 7c3 4 6.3 7.2 9.4 7.6h23.4s1.4 0 3.5-1.3c1.7-1 3.3-2.9 3.3-2.9s1.5-1.7 3.8-5.6c.7-1.2 1.2-2.4 1.7-3.5 0 0 6.9-14.5 6.9-28.6-.2-4.3-1.2-5-1.5-5.3-.5-.5-1.2-.5-1.2-.5s-14.5.9-22 1l-4.9.1V40l-2-1V25.5l-11.1-.2L24.8 24l-2.1-.1Zm1.1 6h.4s.8 7.3 2 11.6c.8 3.6 3 9.6 3 9.6s-3.3-.3-5.3-1c-3.3-1.1-4.6-2.4-4.6-2.4s-2.4-1.7-3.6-5c-2-5.4-.1-8.7-.1-8.7s1-2.8 4.7-3.8c1.3-.3 2.8-.4 3.5-.4Zm27 8.2c.9 0 1.7.4 1.7.4l2.8 1.4-1.7 3.5a2.2 2.2 0 0 0-1.8 3.6l-3 6.3c-1 0-2 .7-2.2 1.7-.2 1 .3 2 1.2 2.4 1 .5 2.1.3 2.8-.6.6-1 .5-2.1-.3-2.9l3-6 .8-.1.9-.5c1.1.5 2.2 1 3.3 1.7.3.2.7.5.9.9.2.7-.2 1.8-.2 1.8-.3 1-2.3 5-2.3 5-1 0-2 .7-2.2 1.6a2.2 2.2 0 1 0 3.7-.8l.7-1.4 1.7-3.8c.1-.2.7-1.2.3-2.6-.3-1.4-1.5-2-1.5-2-1.5-1-3.6-2-3.6-2s0-.5-.2-.8c0-.3-.2-.6-.5-.8l1.7-3.5 9.4 4.6s1.5.7 1.9 2c.2 1 0 1.7-.2 2.1-.8 2-6.9 14-6.9 14s-.7 1.8-2.4 2c-.4 0-.8 0-1.3-.2l-.6-.3-14-6.8s-1.3-.7-1.6-2c-.3-1 .4-2.1.4-2.1l6.7-14s.6-1.1 1.5-1.5a2 2 0 0 1 1.1-.3Z"/>
</svg>
