<svg xmlns="http://www.w3.org/2000/svg" viewBox="0 0 96 96">
  <path fill="#FF4088" d="M0 0h96v96H0z"/>
  <path fill="#FFF" fill-rule="nonzero" d="M47.2 8c-2.5 0-4.9.7-7 2L18.9 23.3A14.3 14.3 0 0 0 12 35.4v27c0 5 2.7 9.7 7 12.1l21.8 12.6a13 13 0 0 0 13 0l23.7-13.3c4-2.3 6.5-6.5 6.5-11.2V34.1a12 12 0 0 0-6-10.4L54.1 9.8a13.5 13.5 0 0 0-7-1.8Zm0 5.6a8 8 0 0 1 4 1.1l24 13.9c2 1.1 3.2 3.2 3.2 5.5v28.5c0 2.6-1.4 5-3.7 6.3L51 82.3a7.4 7.4 0 0 1-7.4 0L21.8 69.5a8.2 8.2 0 0 1-4.2-7.1v-27c0-3 1.6-5.9 4.2-7.4l21.4-13.3a7.8 7.8 0 0 1 4-1.2Zm-15.8 13v43.3h9v-19h15.1v19h9V26.6h-9v15.8h-15V26.6h-9Z"/>
</svg>
