<svg xmlns="http://www.w3.org/2000/svg" viewBox="0 0 860 280">
  <g transform="translate(0 20)">
    <circle cx="70" cy="70" r="47" fill="#F20"/>
    <path fill="#F70" d="M39 124h62c5 0 7 1 9 2l4 4c1 2 2 4 2 9v62c0 5-1 7-2 9l-4 4c-2 1-4 2-9 2H39c-5 0-7-1-9-2l-4-4c-1-2-2-4-2-9v-62c0-5 1-7 2-9l4-4c2-1 4-2 9-2Z"/>
    <path fill="#52A" d="M134 124h67c5 0 7 1 9 2l4 4c1 2 2 4 2 9v67a6 6 0 0 1-10 4l-76-76a6 6 0 0 1 4-10Z"/>
    <path fill="#FA0" d="M129 116c53 0 87-37 87-87 0-3-2-5-5-5h-75c-7 0-12 5-12 12v75c0 3 2 5 5 5Z"/>
  </g>
  <path fill="#27262B" fill-rule="nonzero" d="M276 206h23V79h-23zm42 0h21v-54c0-13 8-23 21-23 12 0 19 8 19 21v56h22v-60c0-22-12-35-33-35-14 0-23 6-28 16h-1v-14h-21v93Zm134 2c13 0 23-7 29-18v16h22V79h-22v50c-6-11-16-18-29-18-24 0-39 18-39 48s15 49 39 49Zm6-19c-14 0-23-11-23-30 0-18 9-30 23-30s23 12 23 30c0 19-9 30-23 30Zm74-90a12 12 0 1 0 0-24c-7 0-12 6-12 13 0 6 5 11 12 11Zm-11 107h22v-93h-22v93Zm80 2c25 0 38-15 41-29l1-1h-21v1c-2 6-9 12-20 12-14 0-23-10-24-26h66v-7c0-28-17-47-44-47-26 0-43 19-43 49 0 29 16 48 44 48Zm0-80c11 0 20 7 21 22h-43c1-14 10-22 22-22Zm57 78h22v-33l7-8 30 41h25l-39-54 37-40h-25l-35 39V79h-22zM761 99a12 12 0 1 0 0-24c-7 0-13 6-13 13 0 6 6 11 13 11Zm-11 107h21v-93h-21v93Zm74 2 10-1v-16h-5c-8 0-12-3-12-12v-49h17v-17h-17V89h-22v24h-13v17h13v51c0 19 9 27 29 27Z"/>
</svg>
