<svg xmlns="http://www.w3.org/2000/svg" viewBox="0 0 96 96">
  <path fill="#2563eb" d="M0 0h96v96H0z"/>
  <path fill="#FFF" d="M45 14.1c16.4-1.2 30.5 6.5 35.7 19.7 3.8 9.8 2.8 22.9-2.1 28.1-4.5 4.8-15 5-20 .2l-.7-.6-.5.5C50 69.6 34.5 65 31 54.2c-5.1-15.9 10-29 24.7-21.7l1.2.5v-1.3h7.5l-.1 6.2v8c0 7.5.3 8.8 1.8 9.5h.1l.6.3c3.4 1.1 5.3-.8 5.6-5.4C73.6 34.8 67.1 26 53 24 34 21.2 21.8 33.8 24.7 53c2.2 15 16.3 22.7 32.6 18l1-.2 3.2 9.1c-3.5.9-6.2 1.4-8.2 1.7C29 84.5 11.5 67 14 44c2-18 13.4-28.5 31-29.9Zm1.6 26c-5 .6-7.7 5.2-6.2 10.6 2 7.3 13.3 7 14.4-.5 1-6.9-2.2-10.9-8.2-10.1Z"/>
</svg>
