<svg xmlns="http://www.w3.org/2000/svg" viewBox="0 0 96 96">
  <path fill="#8BE028" d="M0 0h96v96H0z"/>
  <path fill="#497614" d="M33.2 70.7c3.9-4 7-2.8 11.7 1.7l6.3 6.4c7.8 7.8 15.2 7.4 24-1.4l3-2.8-5.7-5.7-1.5 1.4c-5 5-8.4 5.7-13.4.7l-8.1-8c-4.6-4.6-8.9-6-13.5-2.1l-.7-.7c4-4.6 2.5-8.9-2-13.5l-8.2-8c-5-5-4.3-8.6.7-13.5l1.4-1.4-5.7-5.7-2.8 2.8c-8.8 8.9-9 16.4-1.4 24l6.4 6.4C28.4 56 29.3 59 25.4 63c-2.4 2.5-1.4 5.7.4 7.4 1.8 1.8 5 2.9 7.4.4Z"/>
  <path fill="#FFF" d="M49 52a5 5 0 1 0 0-10 5 5 0 0 0 0 10Zm12-12a5 5 0 1 0 0-10 5 5 0 0 0 0 10Zm12-12a5 5 0 1 0 0-10 5 5 0 0 0 0 10Z"/>
</svg>
