<svg xmlns="http://www.w3.org/2000/svg" viewBox="0 0 96 96">
  <path fill="#222" d="M0 0h96v96H0z"/>
  <path fill="#FFF" d="M42.7 27c1 0 1.3.8 1.3 2v35.5c0 1.6-.4 2.5-1.4 2.5h-4.1c-1 0-1.4-1-1.4-2.5V34.8h-.2l-.8.2-.5.2h-.2c-1 .1-1.4-.7-1.4-1.9v-2.5c0-1 .4-1.8 1.2-2l7-1.7.5-.1Zm11.9-1c1 0 1.4.8 1.4 2.1v10.4h3c1 0 1.5 1 1.5 2V42c0 1.2-.5 2-1.5 2h-3v13.7c0 .9 0 1.6.2 2.2v.3l.4 1.2.6.4.7.1h1.9c1 0 1.5.7 1.5 1.7v1.6c0 1-.6 1.8-1.6 1.8H57c-.8 0-1.5 0-2-.2-.7 0-1.4-.3-2-.7a5 5 0 0 1-1.7-1.7c-.4-.7-.7-1.6-1-2.8-.2-1.1-.4-2.5-.4-4V44h-1.4c-1 0-1.5-.7-1.5-1.8v-1.6c0-1.2.5-2.1 1.5-2.1H50l.4-10.4c.1-1.3.5-2.1 1.5-2.1h2.7Zm22.2 13c.9 0 1.2.7 1.2 1.8v.7l-4.8 25.2a26 26 0 0 1-1.3 5c-.5 1.2-1 2-1.7 2.5s-1.5.8-2.6.8h-.3c-1.6 0-2.8-.5-3.5-1.5-.2-.3-.3-.8-.3-1.4v-.2c0-1.8.3-2.8 1.3-2.8l1.2.4 1 .2s.2-.1.4-.6c.3-.6.4-1.5.4-2.6l-.5-2.9L62 41.4l-.1-.7c0-1 .3-1.7 1.1-1.7h3.2c.5 0 .8.2 1.1.5.3.3.5.7.6 1.4l2.8 15.3L73 41c0-.6.2-1 .4-1.3v-.1c.4-.4.8-.6 1.2-.6h2.2ZM28.7 27c1 0 1.3.8 1.3 2v35.5c0 1.6-.4 2.5-1.4 2.5h-4.1c-1 0-1.4-1-1.4-2.5V34.8h-.2l-.8.2-.5.2h-.2c-1 .1-1.4-.7-1.4-1.9v-2.5c0-1 .4-1.8 1.2-2l7-1.7.5-.1Z"/>
</svg>
