<svg xmlns="http://www.w3.org/2000/svg" viewBox="0 0 96 96">
  <path fill="#17181C" d="M0 0h96v96H0z"/>
  <path fill="#FFF" d="M78 14a4 4 0 0 1 4 4v60a4 4 0 0 1-4 4H18a4 4 0 0 1-4-4V18a4 4 0 0 1 4-4h60ZM32 53a11 11 0 1 0 0 22 11 11 0 0 0 0-22Zm32 0a11 11 0 1 0 0 22 11 11 0 0 0 0-22Zm-32 3a8 8 0 1 1 0 16 8 8 0 0 1 0-16Zm32 0a8 8 0 1 1 0 16 8 8 0 0 1 0-16ZM32 21a11 11 0 1 0 0 22 11 11 0 0 0 0-22Zm32 0a11 11 0 1 0 0 22 11 11 0 0 0 0-22Zm-32 3a8 8 0 1 1 0 16 8 8 0 0 1 0-16Zm32 0a8 8 0 1 1 0 16 8 8 0 0 1 0-16Z"/>
</svg>
